<?xml version="1.0" standalone="no"?>
<!DOCTYPE svg PUBLIC "-//W3C//DTD SVG 20010904//EN"
 "http://www.w3.org/TR/2001/REC-SVG-20010904/DTD/svg10.dtd">
<svg version="1.0" xmlns="http://www.w3.org/2000/svg"
 width="400.000000pt" height="400.000000pt" viewBox="0 0 400.000000 400.000000"
 preserveAspectRatio="xMidYMid meet">
<metadata>
Created by potrace 1.10, written by Peter Selinger 2001-2011
</metadata>
<g transform="translate(0.000000,573.000000) scale(0.050000,-0.050000)"
fill="#000000" stroke="none">

<path d="M3468 8866 c-164 -183 -455 -509 -648 -724 -192 -216 -387 -432 -432
-480 l-82 -88 -362 83 c-199 46 -376 83 -393 83 -37 0 -43 39 82 -467 l89
-356 -116 -131 c-233 -263 -232 -262 -192 -283 20 -10 410 -178 866 -372 457
-195 875 -375 930 -401 55 -26 175 -77 267 -113 l167 -66 38 46 c21 26 260
294 533 596 272 302 498 557 502 568 4 12 -142 19 -375 19 -254 0 -382 7 -382
21 0 12 53 113 118 225 64 112 142 249 172 304 31 55 99 174 152 264 53 91
115 202 138 247 l42 82 -396 637 c-218 351 -401 638 -408 639 -6 1 -146 -149
-310 -333z m-277 -1159 c71 -46 116 -177 88 -259 -69 -211 -346 -228 -449 -27
-108 208 158 419 361 286z"/>
</g>
</svg>
